<svg xmlns="http://www.w3.org/2000/svg" data-name="Layer 1" viewBox="0 0 512 512"><path fill="#18171c" d="M404.1,149.3H477a35,35,0,0,0,6.89-69.24,44.41,44.41,0,0,0-87.66.19,35,35,0,0,0,7.83,69.05Zm-.65-54.9A7.51,7.51,0,0,0,410.71,87a29.41,29.41,0,0,1,58.82,0A7.51,7.51,0,0,0,477,94.38a20,20,0,0,1,0,39.92H404.1a20,20,0,0,1-.65-39.9ZM428.8,357.86a7.5,7.5,0,1,0,7.5,7.5A7.5,7.5,0,0,0,428.8,357.86Zm75.4-85L341.79,279.4c-.12-1.75-.29-3.5-.51-5.24a89.74,89.74,0,0,0-4.47-18.77L400,240.13a7.5,7.5,0,0,0,5.74-7.29V214.53a7.5,7.5,0,0,0-8-7.48l-92.51,6.33A84.9,84.9,0,0,0,282,201.7l-9.12-95.77a7.49,7.49,0,0,0-7.46-6.79H246.5a7.5,7.5,0,0,0-7.47,6.79L230,201.7a85.2,85.2,0,0,0-23.16,11.68l-92.51-6.33a7.5,7.5,0,0,0-8,7.48v18.31a7.5,7.5,0,0,0,5.74,7.29l63.18,15.26a89.89,89.89,0,0,0-5,24L7.8,272.86A7.63,7.63,0,0,0,2.3,275,7.5,7.5,0,0,0,0,280.36v25a7.5,7.5,0,0,0,5.74,7.29l51.42,12.41c-13.93,8.4-23.23,23.32-23.23,40.3,0,26.19,22.1,47.5,49.27,47.5s49.26-21.31,49.26-47.5a45.91,45.91,0,0,0-6.6-23.71L197.79,359c1.82,2.16,3.69,4.24,5.64,6.22,15.66,15.94,33.84,24.36,52.57,24.36s36.91-8.42,52.57-24.36c2-2,3.84-4.08,5.66-6.25l.35-.06,71.56-17.28a45.91,45.91,0,0,0-6.6,23.71c0,26.19,22.1,47.5,49.26,47.5s49.27-21.31,49.27-47.5c0-17-9.3-31.9-23.23-40.3l51.42-12.41a7.5,7.5,0,0,0,5.74-7.29v-25a7.5,7.5,0,0,0-2.3-5.41A7.6,7.6,0,0,0,504.2,272.86Zm-113.47-50.3v4.38l-60.27,14.55a88.19,88.19,0,0,0-9.93-14.13ZM253.32,114.14h5.3l8,84.13a83.58,83.58,0,0,0-21.28,0Zm-39.9,113,.09-.07a69.75,69.75,0,0,1,97.84,12.75H200.65A71.94,71.94,0,0,1,213.42,227.14Zm-92.15-.2v-4.38l70.2,4.8a88.19,88.19,0,0,0-9.93,14.13ZM83.2,397.86c-18.9,0-34.27-14.58-34.27-32.5s15.37-32.5,34.27-32.5,34.26,14.58,34.26,32.5S102.09,397.86,83.2,397.86ZM15,299.45V288.17l155.44,6.25A109.47,109.47,0,0,0,173.59,312a123.76,123.76,0,0,0,11.49,28.49Zm171.78,3.07c-.26-1.29-.49-2.57-.69-3.85-.05-.31-.1-.62-.14-.93-.18-1.22-.35-2.45-.48-3.66a1.49,1.49,0,0,0,0-.21q-.19-1.9-.3-3.78c0-.31,0-.61-.05-.91-.06-1.26-.1-2.51-.1-3.74s0-2.42.1-3.63c0-.18,0-.35,0-.53.07-1.15.16-2.29.28-3.44,0-.21,0-.42.07-.64.12-1.14.27-2.27.45-3.41l.09-.52c.19-1.18.41-2.37.66-3.54v0c.25-1.16.53-2.32.84-3.46,0-.18.08-.35.13-.52.3-1.1.63-2.19,1-3.27.07-.21.13-.42.2-.63.36-1.07.74-2.14,1.15-3.19l.21-.53c.43-1.1.88-2.19,1.37-3.27H248.5v47.8H186.8A.3.3,0,0,1,186.78,302.52ZM256,374.6c-29.57,0-54.18-27.88-64.92-57H320.92C310.18,346.72,285.57,374.6,256,374.6Zm70.85-84.51q-.11,1.88-.3,3.78a1.49,1.49,0,0,0,0,.21c-.13,1.21-.3,2.44-.48,3.66,0,.31-.09.62-.14.93-.2,1.28-.43,2.56-.69,3.85a.3.3,0,0,1,0,.1H263.5v-47.8h56.93v0c.49,1.07.94,2.17,1.38,3.27.06.17.13.34.2.51.41,1.06.79,2.13,1.15,3.21.07.2.13.41.2.62.35,1.08.68,2.17,1,3.27,0,.17.09.34.13.51.31,1.15.6,2.31.85,3.48v0c.25,1.17.47,2.36.66,3.54l.09.52c.18,1.14.33,2.27.45,3.42,0,.21.05.42.07.63.12,1.15.21,2.29.28,3.44,0,.18,0,.35,0,.53.06,1.21.1,2.42.1,3.63s0,2.48-.1,3.73C326.88,289.48,326.87,289.78,326.85,290.09Zm136.22,75.27c0,17.92-15.37,32.5-34.27,32.5s-34.26-14.58-34.26-32.5,15.37-32.5,34.26-32.5S463.07,347.44,463.07,365.36ZM497,299.45,326.92,340.52A123.76,123.76,0,0,0,338.41,312a109.47,109.47,0,0,0,3.15-17.61L497,288.17ZM30.53,91.65H91.7a30.54,30.54,0,0,0,6.83-60.3,38.45,38.45,0,0,0-75.62.19,30.54,30.54,0,0,0,7.62,60.11ZM30,45.6a7.51,7.51,0,0,0,7.26-7.41,23.45,23.45,0,0,1,46.9,0,7.51,7.51,0,0,0,7.51,7.41,15.54,15.54,0,0,1,0,31.07H30.53A15.53,15.53,0,0,1,30,45.6ZM83.2,357.86a7.5,7.5,0,1,0,7.5,7.5A7.5,7.5,0,0,0,83.2,357.86Z"/></svg>