<svg xmlns="http://www.w3.org/2000/svg" data-name="Layer 1" viewBox="0 0 512 512"><g data-name="&lt;Group&gt;"><polygon fill="#fdc75b" points="282.28 342.33 282.21 342.44 194.47 427.89 228.66 305.98 282.28 342.33"/><polygon fill="#fdc75b" points="489 84.11 398.42 421.06 282.28 342.33 228.66 305.98 489 84.11"/><polygon fill="#ed664c" points="489 84.11 228.66 305.98 194.47 427.89 168.84 269.52 489 84.11"/><polygon fill="#fdc75b" points="489 84.11 168.84 269.52 23 208.57 489 84.11"/><path d="M496.874,77.946a9.965,9.965,0,0,0-5.645-3.584.057.057,0,0,1-.015,0l-.015,0c-.161-.036-.322-.068-.484-.1l-.015,0-.015,0a10.008,10.008,0,0,0-4.446.244L20.42,198.909A10,10,0,0,0,19.144,217.8L159.857,276.6,184.6,429.488a10,10,0,0,0,16.848,5.566l82-79.856,109.366,74.139a10,10,0,0,0,15.268-5.681L498.633,86.8c.071-.256.132-.516.183-.776a10,10,0,0,0-1.316-7.182A10.09,10.09,0,0,0,496.874,77.946ZM418.8,113.211,168.12,258.381,53.932,210.659ZM179.812,274.722,398.583,148.028,222.174,298.369a9.99,9.99,0,0,0-3.134,4.913l-.009,0L197.093,381.5Zm34.333,120.049,20.4-72.723,32,21.694ZM392.408,404.9,245.142,305.072,470.986,112.6Z"/></g></svg>