<svg xmlns="http://www.w3.org/2000/svg" enable-background="new 0 0 48 48" viewBox="0 0 48 48"><path fill="#64d3ff" d="M33.2,37.6c-0.4-1.1-0.8-2.4-1.8-3c-0.3-0.2-0.7-0.3-1-0.4c-0.6-0.3-1.1-1-1.5-1.6c-0.5-0.8-1.1-1.8-0.7-2.7
				c0.2-0.5,0.7-0.9,0.8-1.5c0-0.9-1.1-1.3-1.4-2.2c-0.3-0.9,0.4-1.8,1.2-2.2c0.8-0.5,1.7-0.7,2.3-1.4c-0.4-0.6,0.1-1.3,0.7-1.7
				c0.6-0.3,1.3-0.5,1.7-1.1c0.2-0.3,0.3-0.6,0.4-0.9c0.7-1.4,2.8-1.5,4.4-1.3h0.5c-0.3-0.5-0.5-0.9-0.8-1.4L9.7,11
				c-0.7,0.5-1.4,1.1-2,1.7c0.7,0.5,1.5,1.2,2,1.5c0.5,0.4,1,0.7,1.6,0.9c0.3,0.1,0.7,0.2,1.1,0.3c0.6,0.1,1.3,0.2,1.9,0.4l6.4,1.2
				l1.1,6.5c-0.3,1.2-0.6,2.4-0.3,3.5c0.4,1.5,1.7,2.8,1.5,4.3c-0.2,1.2-1.3,2-2.4,2.5c-1.1,0.5-2.3,0.7-3.2,1.4
				c-0.8,0.6-1.4,1.5-1.9,2.4c-0.2,0.3-0.3,0.5-0.6,0.7c-0.2,0.1-0.4,0.2-0.7,0.2c-1.3,0.2-2.5-0.2-3.8,0c-1.3,0.1-2.6,1.1-2.5,2.4
				v0.3c3.5,3.3,8.2,5.3,13.4,5.3c5.8,0,11-2.6,14.6-6.6h-0.3C34.4,40,33.6,38.8,33.2,37.6z"/><path fill="#d2e18c" d="M38.7,17.7h-0.5c-1.6-0.2-3.6-0.1-4.4,1.3c-0.1,0.3-0.2,0.6-0.4,0.9c-0.4,0.6-1.1,0.8-1.7,1.1
				c-0.6,0.3-1.1,1.1-0.7,1.7c-0.6,0.7-1.5,1-2.3,1.4c-0.8,0.5-1.5,1.4-1.2,2.2c0.3,0.8,1.4,1.3,1.4,2.2c0,0.6-0.5,1-0.8,1.5
				c-0.4,0.9,0.2,1.9,0.7,2.7c0.4,0.6,0.8,1.2,1.5,1.6c0.3,0.2,0.7,0.3,1,0.4c1,0.6,1.4,1.9,1.8,3c0.4,1.1,1.2,2.3,2.4,2.3h0.3
				c3.1-3.5,5-8,5-13.1C40.9,23.6,40.1,20.5,38.7,17.7z"/><path fill="#ad9dc4" d="M10.3,38.5c1.3-0.1,2.5,0.2,3.8,0c0.2,0,0.5-0.1,0.7-0.2c0.3-0.2,0.4-0.4,0.6-0.7c0.5-0.9,1.1-1.8,1.9-2.4
				c1-0.7,2.2-1,3.2-1.4c1.1-0.5,2.2-1.3,2.4-2.5c0.2-1.5-1.1-2.8-1.5-4.3c-0.3-1.2,0-2.4,0.3-3.5L20.6,17l-6.4-1.2
				c-0.6-0.1-1.3-0.2-1.9-0.4c-0.4-0.1-0.7-0.1-1.1-0.3c-0.6-0.2-1.1-0.6-1.6-0.9c-0.5-0.3-1.3-1-2-1.5c-0.5,0.5-1,1-1.5,1.6
				l0.1,0.4c-0.3,0.7,0.6,1.2,1.2,1.7c1.1,1,0.9,2.7,0.5,4.1c-0.4,1.4-0.7,3.1,0.3,4.2c0.6,0.7,1.7,0.9,2.1,1.8
				c0.3,0.9-0.3,1.7-0.8,2.5c-0.5,0.8-1,1.8-0.4,2.5c0.2,0.2,0.4,0.3,0.6,0.5c0.6,0.8,0,1.9-0.6,2.6c-0.9,1.1-2.3,3-3.4,4.3
				c0.6,0.8,1.4,1.6,2.1,2.3v-0.3C7.7,39.6,9.1,38.6,10.3,38.5z"/><path fill="#ffbf5b" d="M9.7,32c-0.2-0.2-0.4-0.3-0.6-0.5c-0.6-0.7-0.2-1.8,0.4-2.5c0.5-0.8,1.1-1.6,0.8-2.5
				c-0.3-0.9-1.4-1.1-2.1-1.8c-1-1-0.7-2.7-0.3-4.2c0.4-1.4,0.6-3.2-0.5-4.1c-0.6-0.5-1.5-1-1.2-1.7l-0.1-0.4
				c-2.9,3.4-4.6,7.8-4.6,12.6c0,4.5,1.5,8.7,4.1,12c1-1.3,2.5-3.2,3.4-4.3C9.7,33.8,10.3,32.7,9.7,32z"/><path fill="#fff" d="M46.1,6.8L41,5.8l-5.1,4.8c0,0-20.8-6.7-25.2-7.5C3.6,1.9,1.4,7,1.4,7s1.1,2.7,6.2,3.6
				c8,1.5,31.6,5.7,31.6,5.7L46.1,6.8z"/><polyline fill="#ff7170" points="12.3 11.5 18.4 22.2 24.3 23.3 22.6 13.4"/><polyline fill="#ff7170" points="18 5 26.6 1.5 31.5 2.4 27.5 7.9"/><path d="M35.7,9.8c-1-0.3-3.7-1.2-7-2.2l4.1-5.7l-6.2-1.1l-8.7,3.5c-3.1-0.9-5.7-1.6-7-1.9C3.3,1,0.7,6.6,0.7,6.7L0.5,7l0.2,0.4
		c0.1,0.1,1.3,3,6.7,4L8,11.5C3.5,15.3,0.9,21,0.9,26.9c0,11.2,9.1,20.4,20.4,20.4s20.4-9.1,20.4-20.4c0-3.4-0.9-6.8-2.5-9.8l0.2,0
		l8.1-10.9L40.8,5L35.7,9.8z M26.7,2.3l3.5,0.6l-3,4.2c-2.3-0.7-4.7-1.4-7-2.1L26.7,2.3z M11.9,12.2l1.5,2.6l-0.9-0.2
		c-0.3-0.1-0.7-0.1-0.9-0.2c-0.5-0.2-0.9-0.5-1.4-0.8l-1.3-0.9c0.3-0.3,0.7-0.6,1-0.8L11.9,12.2z M22,14l1.4,8.4l-4.5-0.8l-5.1-9
		L22,14z M5.9,16c0.2,0.3,0.6,0.5,0.8,0.7c0.1,0.1,0.2,0.2,0.3,0.3c0.6,0.5,0.7,1.6,0.2,3.3c-0.3,1.2-0.9,3.4,0.5,4.9
		c0.3,0.3,0.7,0.6,1,0.8c0.4,0.3,0.8,0.5,0.9,0.8c0.2,0.5-0.3,1.2-0.7,1.8c-0.9,1.3-1,2.6-0.3,3.4c0.1,0.1,0.2,0.2,0.4,0.4
		c0.1,0.1,0.1,0.1,0.2,0.2c0.3,0.3-0.2,1.1-0.6,1.7l-2.8,3.5c-2.1-3.1-3.4-6.8-3.4-10.7C2.4,22.9,3.6,19.1,5.9,16z M6.7,38.9l3-3.8
		c1.5-1.9,1-3.1,0.6-3.6c-0.1-0.1-0.3-0.3-0.4-0.4C9.8,31,9.8,31,9.7,30.9c-0.3-0.3,0-1,0.4-1.6c0.6-0.8,1.4-2,0.9-3.2
		c-0.3-0.8-0.9-1.2-1.5-1.5c-0.3-0.2-0.6-0.3-0.7-0.5c-0.7-0.7-0.5-2.1-0.1-3.4c0.2-0.9,0.9-3.5-0.7-4.9c-0.1-0.1-0.3-0.2-0.4-0.3
		C7.4,15.3,7,15,7,15l-0.3-0.1c0.3-0.4,0.7-0.8,1.1-1.2l1.5,1.1c0.5,0.4,1.1,0.8,1.7,1c0.4,0.1,0.8,0.2,1.2,0.3l2.1,0.4l3.6,6.4
		l3,0.6c-0.3,1.1-0.6,2.4-0.3,3.7c0.2,0.7,0.5,1.3,0.8,1.8c0.4,0.8,0.8,1.5,0.7,2.2c-0.2,1-1.4,1.7-1.9,1.9c-0.3,0.1-0.7,0.3-1,0.4
		c-0.8,0.3-1.6,0.6-2.4,1.1c-0.9,0.7-1.5,1.6-2.1,2.6c-0.1,0.2-0.2,0.4-0.3,0.5c-0.1,0.1-0.2,0.1-0.4,0.1c-0.6,0.1-1.2,0-1.8,0
		c-0.6,0-1.3-0.1-1.9,0c-1,0.1-2,0.6-2.6,1.4c-0.1,0.1-0.2,0.3-0.3,0.4C7.1,39.4,6.9,39.1,6.7,38.9z M35.6,39.2
		c-0.7,0.1-1.4-0.9-1.7-1.8L33.7,37c-0.4-1.1-0.8-2.3-2-3c-0.2-0.1-0.4-0.2-0.6-0.3c-0.1-0.1-0.3-0.1-0.4-0.2
		c-0.5-0.3-0.9-0.8-1.2-1.3c-0.4-0.7-0.9-1.4-0.6-2c0.1-0.1,0.2-0.3,0.3-0.4c0.2-0.3,0.5-0.8,0.6-1.3c0-0.8-0.5-1.4-0.9-1.8
		c-0.2-0.2-0.5-0.5-0.5-0.7c-0.2-0.4,0.3-1,0.9-1.3c0.2-0.1,0.5-0.3,0.7-0.4c0.6-0.3,1.3-0.6,1.8-1.2l0.4-0.4l-0.3-0.5
		c0-0.1,0.1-0.4,0.5-0.6c0.1-0.1,0.3-0.2,0.5-0.2c0.5-0.2,1.1-0.5,1.4-1.1c0.1-0.2,0.2-0.4,0.3-0.6c0-0.1,0.1-0.2,0.1-0.3
		c0.4-0.8,2-1.2,3.7-0.9c1.3,2.6,2,5.5,2,8.4C40.2,31.6,38.4,35.9,35.6,39.2z M37.3,16.9c-1.3,0-3.3,0.1-4.2,1.8
		C33.1,18.9,33,19,33,19.1c-0.1,0.1-0.1,0.3-0.2,0.4c-0.2,0.2-0.5,0.4-0.9,0.6c-0.2,0.1-0.4,0.2-0.6,0.3c-0.6,0.3-1,0.9-1.2,1.5
		c0,0.2,0,0.4,0,0.6c-0.3,0.2-0.6,0.4-1,0.6c-0.3,0.1-0.6,0.3-0.8,0.4c-1,0.6-2,1.9-1.5,3.1c0.2,0.5,0.5,0.9,0.9,1.2
		c0.3,0.3,0.5,0.5,0.5,0.7c0,0.1-0.1,0.3-0.3,0.5c-0.1,0.2-0.3,0.4-0.4,0.7c-0.6,1.3,0.3,2.7,0.8,3.4c0.4,0.6,0.9,1.4,1.7,1.8
		c0.2,0.1,0.4,0.2,0.6,0.3c0.1,0.1,0.3,0.1,0.4,0.2c0.7,0.4,1,1.3,1.3,2.2l0.2,0.4c0.5,1.2,1.2,2.1,2,2.5c-3.4,3.3-8,5.4-13.2,5.4
		c-4.9,0-9.3-1.9-12.7-4.9c0-0.2,0.1-0.6,0.2-0.8c0.3-0.4,1-0.8,1.6-0.8c0.5-0.1,1.1,0,1.7,0c0.7,0.1,1.4,0.1,2.2,0
		c0.3,0,0.6-0.1,0.9-0.3c0.4-0.3,0.6-0.6,0.8-0.9c0.5-0.9,1.1-1.7,1.7-2.2c0.6-0.4,1.3-0.7,2-0.9c0.4-0.1,0.7-0.3,1.1-0.4
		c1.6-0.7,2.6-1.8,2.8-3c0.2-1.2-0.4-2.2-0.8-3.1c-0.3-0.5-0.5-1-0.7-1.5c-0.2-1,0-2.1,0.3-3.1l2.8,0.5l-1.7-10l13.7,2.5
		C37.3,16.8,37.3,16.9,37.3,16.9z M45,7.3l-6.2,8.2L7.7,9.9C4.1,9.2,2.8,7.7,2.3,7C2.7,6.4,3.5,5.3,5,4.5c0.5,0.7,1.4,1.8,3,2.3
		l0.5-1.4C7.4,5.1,6.8,4.5,6.4,4c1.1-0.3,2.5-0.4,4.2-0.1c4.2,0.8,24.9,7.4,25.1,7.4l0.4,0.1l5.2-4.8L45,7.3z"/></svg>