<svg xmlns="http://www.w3.org/2000/svg" data-name="Layer 1" viewBox="0 0 512 512"><polygon fill="#e1e1e3" points="504.5 280.36 504.5 305.36 297.5 355.34 256 365.36 189.71 349.35 7.5 305.36 7.5 280.36 167.51 286.8 256 290.36 324.47 287.6 504.5 280.36"/><path fill="#dadadc" d="M474.5,281.57v7.23a17.23,17.23,0,0,1-13.18,16.74l-226.53,54.7L256,365.36l248.5-60v-25Z"/><polygon fill="#e1e1e3" points="398.23 214.53 398.23 232.84 317.53 252.33 256 267.18 176.55 248 113.77 232.84 113.77 214.53 199.89 220.42 256 224.26 293.75 221.68 398.23 214.53"/><path fill="#dadadc" d="M378.23,215.9v4.94a15.25,15.25,0,0,1-11.67,14.82L246,264.77l10,2.41,142.23-34.34V214.53Z"/><polygon fill="#e1e1e3" points="265.44 106.64 278.41 242.86 233.59 242.86 246.5 106.64 265.44 106.64"/><polygon fill="#dadadc" points="265.44 106.64 255.44 106.64 268.41 242.86 278.41 242.86 265.44 106.64"/><path fill="#c8c5cc" d="M324.47 287.6a98.72 98.72 0 0 1-3.31 22.52 115.3 115.3 0 0 1-23.66 45.22l-41.5 10-66.29-16a116.21 116.21 0 0 1-18.87-39.23 98.09 98.09 0 0 1-3.33-23.32L256 290.36zM317.53 252.33L256 267.18 176.55 248c.1-.23.22-.45.34-.68a79.93 79.93 0 0 1 23-26.9L256 224.26l37.75-2.58a79.92 79.92 0 0 1 21.36 25.64Q316.4 249.78 317.53 252.33z"/><path fill="#dadadc" d="M334.5,285.44a97.5,97.5,0,0,1-3.34,24.68c-9.75,37-39.7,72-75.16,72s-65.41-35-75.16-72a97.5,97.5,0,0,1-3.34-24.68,81.39,81.39,0,0,1,9.39-38.12c13.26-25.15,39.24-42.23,69.11-42.23s55.85,17.08,69.11,42.23A81.39,81.39,0,0,1,334.5,285.44Z"/><path fill="#c8c5cc" d="M325.11,247.32c-13.26-25.15-39.24-42.23-69.11-42.23a76.81,76.81,0,0,0-10,.66,78.54,78.54,0,0,1,59.11,41.57,81.39,81.39,0,0,1,9.39,38.12,97.5,97.5,0,0,1-3.34,24.68c-8.82,33.47-34.16,65.27-65.16,71a54.48,54.48,0,0,0,10,.94c35.46,0,65.41-35,75.16-72a97.5,97.5,0,0,0,3.34-24.68A81.39,81.39,0,0,0,325.11,247.32Z"/><ellipse cx="428.8" cy="365.36" fill="#dadadc" rx="41.76" ry="40"/><path fill="#c8c5cc" d="M428.8,325.36a43.86,43.86,0,0,0-10,1.16c18.24,4.29,31.77,20.05,31.77,38.84S437,399.9,418.8,404.2a43.86,43.86,0,0,0,10,1.16c23.07,0,41.77-17.91,41.77-40S451.87,325.36,428.8,325.36Z"/><circle cx="428.8" cy="365.36" r="7.5" fill="#8b8893"/><ellipse cx="83.2" cy="365.36" fill="#dadadc" rx="41.76" ry="40"/><path fill="#c8c5cc" d="M83.2,325.36a43.8,43.8,0,0,0-10,1.16C91.43,330.81,105,346.57,105,365.36S91.43,399.9,73.2,404.2a43.8,43.8,0,0,0,10,1.16c23.06,0,41.76-17.91,41.76-40S106.26,325.36,83.2,325.36Z"/><circle cx="83.2" cy="365.36" r="7.5" fill="#8b8893"/><path fill="#52bbe9" d="M334.5,285.44a97.5,97.5,0,0,1-3.34,24.68H180.84a97.5,97.5,0,0,1-3.34-24.68,81.39,81.39,0,0,1,9.39-38.12H325.11A81.39,81.39,0,0,1,334.5,285.44Z"/><path fill="#1cabe1" d="M325.11,247.32h-20a81.39,81.39,0,0,1,9.39,38.12,97.5,97.5,0,0,1-3.34,24.68h20a97.5,97.5,0,0,0,3.34-24.68A81.39,81.39,0,0,0,325.11,247.32Z"/><rect width="15" height="62.8" x="248.5" y="247.32" fill="#83c9ee"/><path fill="#52bbe9" d="M91.7,84.15a23,23,0,0,0,0-46.07h0a31,31,0,0,0-61.9,0,23,23,0,0,0,.74,46.05Z"/><path fill="#1cabe1" d="M91.7,38.08h0a30.95,30.95,0,0,0-45.95-26.7,31,31,0,0,1,15.95,26.7h0a23,23,0,0,1,0,46.07h30a23,23,0,0,0,0-46.07Z"/><path fill="#52bbe9" d="M477,141.8a27.46,27.46,0,0,0,0-54.92h0a36.91,36.91,0,0,0-73.81,0,27.46,27.46,0,0,0,.89,54.9Z"/><path fill="#1cabe1" d="M477,86.88h0a36.9,36.9,0,0,0-51.9-33.28A36.88,36.88,0,0,1,447,86.88h0a27.46,27.46,0,0,1,0,54.92h30a27.46,27.46,0,0,0,0-54.92Z"/><path fill="#18171c" d="M404.1,149.3H477a35,35,0,0,0,6.89-69.24,44.41,44.41,0,0,0-87.66.19,35,35,0,0,0,7.83,69.05Zm-.65-54.9A7.51,7.51,0,0,0,410.71,87a29.41,29.41,0,0,1,58.82,0A7.51,7.51,0,0,0,477,94.38a20,20,0,0,1,0,39.92H404.1a20,20,0,0,1-.65-39.9ZM428.8,357.86a7.5,7.5,0,1,0,7.5,7.5A7.5,7.5,0,0,0,428.8,357.86Zm75.4-85L341.79,279.4c-.12-1.75-.29-3.5-.51-5.24a89.74,89.74,0,0,0-4.47-18.77L400,240.13a7.5,7.5,0,0,0,5.74-7.29V214.53a7.5,7.5,0,0,0-8-7.48l-92.51,6.33A84.9,84.9,0,0,0,282,201.7l-9.12-95.77a7.49,7.49,0,0,0-7.46-6.79H246.5a7.5,7.5,0,0,0-7.47,6.79L230,201.7a85.2,85.2,0,0,0-23.16,11.68l-92.51-6.33a7.5,7.5,0,0,0-8,7.48v18.31a7.5,7.5,0,0,0,5.74,7.29l63.18,15.26a89.89,89.89,0,0,0-5,24L7.8,272.86A7.63,7.63,0,0,0,2.3,275,7.5,7.5,0,0,0,0,280.36v25a7.5,7.5,0,0,0,5.74,7.29l51.42,12.41c-13.93,8.4-23.23,23.32-23.23,40.3,0,26.19,22.1,47.5,49.27,47.5s49.26-21.31,49.26-47.5a45.91,45.91,0,0,0-6.6-23.71L197.79,359c1.82,2.16,3.69,4.24,5.64,6.22,15.66,15.94,33.84,24.36,52.57,24.36s36.91-8.42,52.57-24.36c2-2,3.84-4.08,5.66-6.25l.35-.06,71.56-17.28a45.91,45.91,0,0,0-6.6,23.71c0,26.19,22.1,47.5,49.26,47.5s49.27-21.31,49.27-47.5c0-17-9.3-31.9-23.23-40.3l51.42-12.41a7.5,7.5,0,0,0,5.74-7.29v-25a7.5,7.5,0,0,0-2.3-5.41A7.6,7.6,0,0,0,504.2,272.86Zm-113.47-50.3v4.38l-60.27,14.55a88.19,88.19,0,0,0-9.93-14.13ZM253.32,114.14h5.3l8,84.13a83.58,83.58,0,0,0-21.28,0Zm-39.9,113,.09-.07a69.75,69.75,0,0,1,97.84,12.75H200.65A71.94,71.94,0,0,1,213.42,227.14Zm-92.15-.2v-4.38l70.2,4.8a88.19,88.19,0,0,0-9.93,14.13ZM83.2,397.86c-18.9,0-34.27-14.58-34.27-32.5s15.37-32.5,34.27-32.5,34.26,14.58,34.26,32.5S102.09,397.86,83.2,397.86ZM15,299.45V288.17l155.44,6.25A109.47,109.47,0,0,0,173.59,312a123.76,123.76,0,0,0,11.49,28.49Zm171.78,3.07c-.26-1.29-.49-2.57-.69-3.85-.05-.31-.1-.62-.14-.93-.18-1.22-.35-2.45-.48-3.66a1.49,1.49,0,0,0,0-.21q-.19-1.9-.3-3.78c0-.31,0-.61-.05-.91-.06-1.26-.1-2.51-.1-3.74s0-2.42.1-3.63c0-.18,0-.35,0-.53.07-1.15.16-2.29.28-3.44,0-.21,0-.42.07-.64.12-1.14.27-2.27.45-3.41l.09-.52c.19-1.18.41-2.37.66-3.54v0c.25-1.16.53-2.32.84-3.46,0-.18.08-.35.13-.52.3-1.1.63-2.19,1-3.27.07-.21.13-.42.2-.63.36-1.07.74-2.14,1.15-3.19l.21-.53c.43-1.1.88-2.19,1.37-3.27H248.5v47.8H186.8A.3.3,0,0,1,186.78,302.52ZM256,374.6c-29.57,0-54.18-27.88-64.92-57H320.92C310.18,346.72,285.57,374.6,256,374.6Zm70.85-84.51q-.11,1.88-.3,3.78a1.49,1.49,0,0,0,0,.21c-.13,1.21-.3,2.44-.48,3.66,0,.31-.09.62-.14.93-.2,1.28-.43,2.56-.69,3.85a.3.3,0,0,1,0,.1H263.5v-47.8h56.93v0c.49,1.07.94,2.17,1.38,3.27.06.17.13.34.2.51.41,1.06.79,2.13,1.15,3.21.07.2.13.41.2.62.35,1.08.68,2.17,1,3.27,0,.17.09.34.13.51.31,1.15.6,2.31.85,3.48v0c.25,1.17.47,2.36.66,3.54l.09.52c.18,1.14.33,2.27.45,3.42,0,.21.05.42.07.63.12,1.15.21,2.29.28,3.44,0,.18,0,.35,0,.53.06,1.21.1,2.42.1,3.63s0,2.48-.1,3.73C326.88,289.48,326.87,289.78,326.85,290.09Zm136.22,75.27c0,17.92-15.37,32.5-34.27,32.5s-34.26-14.58-34.26-32.5,15.37-32.5,34.26-32.5S463.07,347.44,463.07,365.36ZM497,299.45,326.92,340.52A123.76,123.76,0,0,0,338.41,312a109.47,109.47,0,0,0,3.15-17.61L497,288.17ZM30.53,91.65H91.7a30.54,30.54,0,0,0,6.83-60.3,38.45,38.45,0,0,0-75.62.19,30.54,30.54,0,0,0,7.62,60.11ZM30,45.6a7.51,7.51,0,0,0,7.26-7.41,23.45,23.45,0,0,1,46.9,0,7.51,7.51,0,0,0,7.51,7.41,15.54,15.54,0,0,1,0,31.07H30.53A15.53,15.53,0,0,1,30,45.6ZM83.2,357.86a7.5,7.5,0,1,0,7.5,7.5A7.5,7.5,0,0,0,83.2,357.86Z"/></svg>